<svg width="11" height="15" viewBox="0 0 11 15" fill="none" xmlns="http://www.w3.org/2000/svg">
<path d="M5.5 0.5C6.68431 0.5 7.53075 0.500636 8.18359 0.574219C8.82619 0.646663 9.21911 0.784678 9.52148 1.0166C9.69481 1.1496 9.8504 1.30519 9.9834 1.47852C10.2153 1.78089 10.3533 2.17381 10.4258 2.81641C10.4994 3.46925 10.5 4.31569 10.5 5.5V9.5C10.5 10.6843 10.4994 11.5307 10.4258 12.1836C10.3533 12.8262 10.2153 13.2191 9.9834 13.5215C9.8504 13.6948 9.69481 13.8504 9.52148 13.9834C9.21911 14.2153 8.8262 14.3533 8.18359 14.4258C7.53075 14.4994 6.68431 14.5 5.5 14.5C4.31569 14.5 3.46925 14.4994 2.81641 14.4258C2.17381 14.3533 1.78089 14.2153 1.47852 13.9834C1.30519 13.8504 1.1496 13.6948 1.0166 13.5215C0.784678 13.2191 0.646663 12.8262 0.574219 12.1836C0.500636 11.5307 0.5 10.6843 0.5 9.5V5.5C0.5 4.31569 0.500636 3.46925 0.574219 2.81641C0.646663 2.17381 0.784678 1.78089 1.0166 1.47852C1.1496 1.30519 1.30519 1.1496 1.47852 1.0166C1.78089 0.784678 2.17381 0.646663 2.81641 0.574219C3.46925 0.500636 4.31569 0.5 5.5 0.5Z" stroke="#1D1B20"/>
</svg>
