<svg width="13" height="13" viewBox="0 0 13 13" fill="none" xmlns="http://www.w3.org/2000/svg">
<path d="M7.38132 0.510858L1.41571 6.47647C1.1861 6.70608 1.0713 6.82088 0.998231 6.96287C0.92516 7.10486 0.89847 7.265 0.845088 7.58529L0.0487249 12.3635C-0.00486648 12.685 -0.0316622 12.8458 0.061272 12.9387C0.154206 13.0317 0.314981 13.0049 0.636529 12.9513L5.41471 12.1549L5.41472 12.1549C5.735 12.1015 5.89514 12.0748 6.03713 12.0018C6.17912 11.9287 6.29392 11.8139 6.52351 11.5843L6.52353 11.5843L12.4891 5.61868C12.8297 5.27816 12.9999 5.1079 12.9999 4.89632C12.9999 4.68475 12.8297 4.51449 12.4891 4.17397L12.4891 4.17397L8.82603 0.510859C8.48551 0.170338 8.31525 7.71628e-05 8.10368 7.71628e-05C7.8921 7.71628e-05 7.72184 0.170338 7.38132 0.510858Z" fill="#00000C"/>
</svg>
