<svg width="16" height="16" viewBox="0 0 16 16" fill="none" xmlns="http://www.w3.org/2000/svg">
<path d="M8.93271 1.77077L1.46801 9.23547C1.22992 9.47355 1.11088 9.5926 1.03511 9.73983C0.95934 9.88707 0.931663 10.0531 0.876309 10.3853L0.050525 15.34C-0.00504626 15.6734 -0.0328319 15.8401 0.0635356 15.9365C0.159903 16.0328 0.326617 16.005 0.660045 15.9495L5.61475 15.1237L5.61476 15.1237C5.94688 15.0683 6.11294 15.0407 6.26017 14.9649C6.4074 14.8891 6.52644 14.7701 6.76452 14.532L6.76453 14.532L14.2292 7.06729C15.3066 5.98992 15.8453 5.45123 15.9648 4.80331C16.0117 4.54927 16.0117 4.28879 15.9648 4.03474C15.8453 3.38682 15.3066 2.84814 14.2292 1.77077C13.1519 0.693396 12.6132 0.15471 11.9653 0.0352046C11.7112 -0.011653 11.4507 -0.011653 11.1967 0.0352046C10.5488 0.15471 10.0101 0.693395 8.93271 1.77077Z" fill="#D2D4DA"/>
</svg>
