<svg width="16" height="16" viewBox="0 0 16 16" fill="none" xmlns="http://www.w3.org/2000/svg">
<path d="M8.93271 1.77051L1.46801 9.23521C1.22992 9.4733 1.11088 9.59234 1.03511 9.73957C0.95934 9.88681 0.931663 10.0529 0.876309 10.385L0.050525 15.3397C-0.00504626 15.6731 -0.0328319 15.8398 0.0635356 15.9362C0.159903 16.0326 0.326617 16.0048 0.660045 15.9492L5.61475 15.1234L5.61476 15.1234C5.94688 15.0681 6.11294 15.0404 6.26017 14.9646C6.4074 14.8889 6.52644 14.7698 6.76452 14.5317L6.76453 14.5317L14.2292 7.06703C15.3066 5.98966 15.8453 5.45097 15.9648 4.80305C16.0117 4.54901 16.0117 4.28853 15.9648 4.03449C15.8453 3.38656 15.3066 2.84788 14.2292 1.77051C13.1519 0.693137 12.6132 0.154452 11.9653 0.034946C11.7112 -0.0119116 11.4507 -0.0119116 11.1967 0.034946C10.5488 0.154452 10.0101 0.693137 8.93271 1.77051Z" fill="#D2D4DA"/>
</svg>
