<svg width="18" height="9" viewBox="0 0 18 9" fill="none" xmlns="http://www.w3.org/2000/svg">
<path d="M0 8.11976C0 8.38664 0 8.52007 0.0840973 8.56121C0.168195 8.60234 0.273524 8.52041 0.484182 8.35657L7.77212 2.68817C8.36197 2.2294 8.65689 2.00002 9 2.00002C9.34311 2.00002 9.63803 2.2294 10.2279 2.68817L17.5158 8.35657C17.7265 8.52041 17.8318 8.60234 17.9159 8.56121C18 8.52007 18 8.38664 18 8.11976V7.71132C18 7.23097 18 6.9908 17.8983 6.78289C17.7966 6.57498 17.607 6.42752 17.2279 6.13262L10.2279 0.688172C9.63803 0.229401 9.34311 1.58846e-05 9 1.58846e-05C8.65689 1.58846e-05 8.36197 0.229402 7.77212 0.688173L0.772118 6.13262C0.392952 6.42752 0.203369 6.57498 0.101685 6.78289C0 6.9908 0 7.23097 0 7.71132V8.11976Z" fill="#00000C"/>
</svg>
