<svg width="18" height="9" viewBox="0 0 18 9" fill="none" xmlns="http://www.w3.org/2000/svg">
<path d="M0 8.11952C0 8.38639 0 8.51983 0.0840973 8.56096C0.168195 8.60209 0.273524 8.52017 0.484182 8.35632L7.77212 2.68793C8.36197 2.22916 8.65689 1.99977 9 1.99977C9.34311 1.99977 9.63803 2.22916 10.2279 2.68793L17.5158 8.35632C17.7265 8.52017 17.8318 8.60209 17.9159 8.56096C18 8.51983 18 8.38639 18 8.11952V7.71108C18 7.23073 18 6.99055 17.8983 6.78264C17.7966 6.57473 17.607 6.42728 17.2279 6.13237L10.2279 0.687928C9.63803 0.229157 9.34311 -0.000228256 9 -0.000228256C8.65689 -0.000228256 8.36197 0.229157 7.77212 0.687929L0.772118 6.13237C0.392952 6.42728 0.203369 6.57473 0.101685 6.78264C0 6.99055 0 7.23073 0 7.71108V8.11952Z" fill="#00000C"/>
</svg>
