<svg width="14" height="14" viewBox="0 0 14 14" fill="none" xmlns="http://www.w3.org/2000/svg">
<path d="M0 6.82947C0 5.82036 0 5.31581 0.221665 4.88507C0.443329 4.45433 0.853902 4.16107 1.67505 3.57453L5.83752 0.601336C6.39886 0.200379 6.67953 -0.0001003 7 -0.0001003C7.32047 -0.0001003 7.60114 0.200379 8.16248 0.601336L12.325 3.57453C13.1461 4.16107 13.5567 4.45433 13.7783 4.88507C14 5.31581 14 5.82036 14 6.82947V11.771C14 12.7138 14 13.1852 13.7071 13.4781C13.4142 13.771 12.9428 13.771 12 13.771H2C1.05719 13.771 0.585786 13.771 0.292893 13.4781C0 13.1852 0 12.7138 0 11.771V6.82947Z" fill="#D2D4DA"/>
</svg>
